<?xml version="1.0" encoding="utf-8"?>
<!-- Generator: Adobe Illustrator 24.1.3, SVG Export Plug-In . SVG Version: 6.00 Build 0)  -->
<svg version="1.1" id="Layer_1" xmlns="http://www.w3.org/2000/svg" xmlns:xlink="http://www.w3.org/1999/xlink" x="0px" y="0px"
	 viewBox="0 0 35 35" style="enable-background:new 0 0 35 35;" xml:space="preserve">
<path d="M34.42,16.54c-1.48-1.58-3-3.12-4.51-4.68c-1.55-1.6-3.1-3.2-4.66-4.79c-2.16-2.2-4.36-4.36-6.5-6.58
	c-0.61-0.63-2.04-0.61-2.59-0.01c-1.01,1.1-2.07,2.15-3.12,3.22c-2.96,3.03-5.93,6.05-8.9,9.08c-1.23,1.25-2.47,2.49-3.69,3.76
	c-0.61,0.64-0.59,1.63,0.05,2.27c2.82,2.85,5.64,5.7,8.48,8.54c1.41,1.4,2.85,2.78,4.26,4.18c0.89,0.88,1.81,1.74,2.63,2.68
	c0.81,0.93,2.08,1.1,2.96,0.24c0.99-0.97,1.92-2,2.9-2.99c2.43-2.45,4.87-4.89,7.32-7.33c1.27-1.27,2.56-2.51,3.83-3.77
	c0.51-0.52,1.04-1.02,1.51-1.58c0.26-0.31,0.39-0.71,0.61-1.12C34.79,17.24,34.69,16.81,34.42,16.54z M21.08,5.5
	c3.59,3.66,7.18,7.32,10.76,10.99c-0.05,0.07-0.11,0.15-0.17,0.23c-1.48-0.78-3.07-1.44-4.42-2.4c-0.86-0.61-1.42-1.64-2.05-2.52
	c-1.04-1.45-2.05-2.94-3.06-4.41c-0.41-0.6-0.8-1.2-1.2-1.8C20.99,5.56,21.03,5.53,21.08,5.5z M14.03,5.27
	c0.04,0.03,0.08,0.07,0.12,0.1c-1.24,1.77-2.5,3.53-3.74,5.31c-0.65,0.92-1.25,1.88-1.89,2.81c-0.83,1.21-2.14,1.78-3.46,2.34
	c-0.63,0.26-1.26,0.51-2.02,0.65C6.7,12.74,10.37,9.01,14.03,5.27z M16.81,30.6c0,0.53,0,1.07,0,1.85c-0.38-0.22-0.67-0.3-0.85-0.49
	c-1.25-1.22-2.48-2.46-3.71-3.71c-0.97-0.98-1.9-1.98-2.87-2.95c-1.22-1.22-2.48-2.42-3.7-3.64c-0.95-0.95-1.9-1.9-2.8-2.89
	c-0.43-0.47-0.11-1.06,0.64-1.35c0.95-0.37,1.89-0.8,2.86-1.14c0.9-0.32,1.87-0.34,2.74-0.01c1.51,0.56,2.97,1.25,4.46,1.87
	c0.67,0.28,1.39,0.48,2.05,0.79c0.82,0.38,1.15,1.15,1.16,1.93C16.84,24.11,16.81,27.35,16.81,30.6z M16.94,18.12
	c-0.47-0.16-1.39-0.44-2.25-0.78c-1.61-0.64-3.19-1.33-4.79-1.99c-0.8-0.32-0.97-0.78-0.5-1.46c1.41-2.05,2.83-4.11,4.25-6.16
	c1.03-1.5,2.06-3,3.14-4.47c0.54-0.74,0.82-0.7,1.33,0.03c1.25,1.78,2.5,3.56,3.75,5.34c1.2,1.71,2.41,3.43,3.62,5.15
	c0.56,0.79,0.21,1.39-0.97,1.81c-1.18,0.42-2.31,0.94-3.48,1.36C19.85,17.37,18.77,18.14,16.94,18.12z M31.89,19
	c-1.23,1.23-2.48,2.44-3.71,3.67c-2.14,2.13-4.28,4.27-6.41,6.41c-0.97,0.98-1.94,1.97-2.93,2.94c-0.14,0.13-0.36,0.2-0.64,0.36
	c0-1.33,0-2.51,0-3.69c0-2.68,0-5.35,0-8.03c0-0.85,0.7-1.69,1.53-2c1.38-0.52,2.72-1.14,4.1-1.67c0.92-0.36,1.85-0.76,2.81-0.89
	c0.73-0.09,1.55,0.12,2.27,0.36c0.94,0.32,1.82,0.79,2.73,1.19C32.38,17.98,32.47,18.42,31.89,19z"/>
</svg>
