<?xml version="1.0" encoding="utf-8"?>
<!-- Generator: Adobe Illustrator 24.1.3, SVG Export Plug-In . SVG Version: 6.00 Build 0)  -->
<svg version="1.1" id="Layer_1" xmlns="http://www.w3.org/2000/svg" xmlns:xlink="http://www.w3.org/1999/xlink" x="0px" y="0px"
	 viewBox="0 0 35 35" style="enable-background:new 0 0 35 35;" xml:space="preserve">
<style type="text/css">
	.st0{opacity:0.6;enable-background:new    ;}
</style>
<path class="st0" d="M33.2,9.1c-1.5,0.1-3,0.1-4.5,0.1c-1,0-1.9,0-2.8,0c0-2.4,0-4.9,0-7.3c0-0.9-1-1.9-1.8-1.8
	c-1.5,0.1-3,0.1-4.5,0.1c-4.3,0.1-8.5,0.1-12.7,0.1c-1.8,0-3.5,0-5.3,0C0.7,0.3,0,1,0,1.9c0,4,0,8,0,12c0,2,0.1,4,0.1,6
	c0,1.3,0.1,2.5,0,3.8C0,24.9,0.8,26,2,26c1.4,0,2.8-0.1,4.2-0.1c1,0,2,0,3,0c0,1,0,2.1,0,3.1c0,1.3,0.1,2.5,0,3.8C9,34,9.8,35,11,35
	c1.4,0,2.8-0.1,4.2-0.1c3.4,0,6.9,0,10.4,0c1.8,0,3.6,0,5.4,0c0.7,0,1.5,0,2.2,0c0.4,0,0.8-0.2,1.2-0.4c0.2-0.5,0.4-0.8,0.4-1.2
	c0.1-2.2,0.1-4.3,0.1-6.5s0.1-4.5,0.1-6.7c0-3.1,0-6.2,0.1-9.3C35,10.1,34,9.1,33.2,9.1z M31.7,11.5c0.9-0.1,1.1,0.1,0.9,1
	c-0.4,2.1-0.8,4.3-1.1,6.4c-0.4,2.1-0.7,4.1-1.1,6.2c-0.2,1-0.8,1.1-2,0.6c-1.1-0.5-2.3-1-3.4-1.5s-2.5-0.8-3.7-2.1
	c-0.2-0.5-0.7-1.3-1-2.1c-0.7-1.6-1.3-3.2-2-4.8C18,14.4,18.2,14,19,13.8c2.5-0.4,4.9-0.9,7.4-1.4C28.1,12.1,29.9,11.8,31.7,11.5z
	 M28.3,11.1c-2.1,0.4-4.3,0.7-6.4,1.1c-1.1,0.2-2.2,0.4-3.3,0.6c-1.4,0.3-2.8-0.3-4.1-0.8c-0.6-0.3-1.3-0.5-1.9-1
	c5.2-0.1,10.5-0.1,15.7-0.2C28.3,11,28.3,11.1,28.3,11.1z M24,7c0,0.7,0,1.4,0,2.2c-0.2,0-0.4,0-0.6,0V9.1c0.1-0.7,0.3-1.4,0.4-2.1
	C23.9,7,24,7,24,7z M22.6,2.4c0.9-0.1,1.1,0.1,0.9,1c-0.3,2-0.7,3.9-1,5.9c-2.2,0-4.3,0-6.5,0.1c-1.8,0-3.5,0-5.3,0.1
	c-0.1,0-0.1,0-0.2,0C10,8.3,9.6,7.2,9.1,6.1C8.8,5.3,9,4.8,9.8,4.7c2.4-0.4,4.9-0.9,7.4-1.3C19,3,20.8,2.7,22.6,2.4z M19.2,1.9
	c0,0,0,0.1,0,0.2c-2.1,0.4-4.3,0.7-6.4,1.1c-1.1,0.2-2.2,0.5-3.3,0.7C8,4.1,6.7,3.5,5.4,3C4.7,2.7,4.1,2.5,3.5,2
	C8.7,2,13.9,1.9,19.2,1.9z M1.9,23.1c-0.1-0.4-0.3-0.7-0.3-1c0-1.8,0-3.5,0-5.3c0-1.4,0.1-2.7,0.1-4.1c0-1.7,0-3.5,0-5.2
	c0-1.3,0-2.7,0.1-4c0-0.6,0.7-0.8,1.4-0.5C4.1,3.4,5.1,3.8,6,4.3c0.9,0.4,1.6,1.1,1.9,1.9C8.5,7.4,9,8.7,9.5,10
	c-0.2,0.3-0.4,0.6-0.4,1c0,1.6,0,3.3,0,4.9c-1.9,2-3.9,3.9-5.9,5.9C2.9,22.1,2.5,22.5,1.9,23.1z M7.8,24.2c-1.4,0-2.8,0-4.2,0
	c-0.2,0-0.4-0.1-0.7-0.2c0.9-0.9,1.8-1.8,2.6-2.6C6.7,20.2,7.9,19,9,17.9c0,1.7,0,3.4,0,5.2c0,0.4,0,0.8,0,1.2
	C8.7,24.2,8.3,24.2,7.8,24.2z M11,32.2c-0.1-0.4-0.3-0.7-0.3-1c0-1.8,0-3.5,0-5.3c0-1.4,0.1-2.7,0.1-4.1c0-1.7,0-3.5,0-5.2
	c0-1.3,0-2.7,0.1-4c0-0.6,0.7-0.8,1.4-0.5c0.9,0.4,1.9,0.8,2.8,1.2c0.9,0.4,1.6,1.1,1.9,1.9c0.7,1.5,1.2,3,1.8,4.5
	c0.3,0.7,0.6,1.3,0.9,2c0.3,0.9,0,1.6-0.5,2.2c-2.3,2.3-4.6,4.6-6.9,6.9C12,31.2,11.6,31.6,11,32.2z M31.2,33.3c-1.7,0-3.5,0-5.2,0
	c-3,0-6.1,0-9.1,0c-1.4,0-2.8,0-4.1,0c-0.2,0-0.4-0.1-0.7-0.2c0.9-0.9,1.8-1.8,2.6-2.6c1.9-1.9,3.8-3.8,5.7-5.7
	c0.6-0.6,1.7-0.7,2.5-0.3c1.3,0.6,2.7,1.1,4.1,1.7c0.9,0.4,1.9,0.8,2.6,1.4c0.6,0.5,1,1.2,1.4,1.9c0.4,0.9,0.7,1.9,1.1,2.8
	C32.3,32.9,32,33.3,31.2,33.3z M32.9,31.5c-0.1,0-0.2,0-0.3,0c-0.5-1.6-1.1-3.2-1.4-4.8c-0.2-1,0.2-2.2,0.3-3.2
	c0.3-1.8,0.6-3.5,0.9-5.3c0.1-0.7,0.3-1.4,0.4-2.1c0.1,0,0.1,0,0.2,0C33.1,21.2,33,26.4,32.9,31.5z"/>
</svg>
