<?xml version="1.0" encoding="utf-8"?>
<!-- Generator: Adobe Illustrator 24.1.3, SVG Export Plug-In . SVG Version: 6.00 Build 0)  -->
<svg version="1.1" id="Layer_1" xmlns="http://www.w3.org/2000/svg" xmlns:xlink="http://www.w3.org/1999/xlink" x="0px" y="0px"
	 viewBox="0 0 35 35" style="enable-background:new 0 0 35 35;" xml:space="preserve">
<style type="text/css">
	.st0{opacity:0.6;enable-background:new    ;}
</style>
<path class="st0" d="M34.4,16.5c-1.5-1.6-3-3.1-4.5-4.7S26.8,8.6,25.2,7c-2.2-2.2-4.4-4.4-6.5-6.6c-0.6-0.6-2-0.6-2.6,0
	c-1,1.1-2.1,2.2-3.1,3.2c-3,3-5.9,6.1-8.9,9.1c-1.2,1.3-2.5,2.5-3.7,3.8c-0.6,0.6-0.6,1.6,0.1,2.3c2.8,2.9,5.6,5.7,8.5,8.5
	c1.4,1.4,2.9,2.8,4.3,4.2c0.9,0.9,1.8,1.7,2.6,2.7c0.8,0.9,2.1,1.1,3,0.2c1-1,1.9-2,2.9-3c2.4-2.5,4.9-4.9,7.3-7.3
	c1.3-1.3,2.6-2.5,3.8-3.8c0.5-0.5,1-1,1.5-1.6c0.3-0.3,0.4-0.7,0.6-1.1C34.8,17.2,34.7,16.8,34.4,16.5z M21.1,5.5
	c3.6,3.7,7.2,7.3,10.8,11c0,0.1-0.1,0.1-0.2,0.2c-1.5-0.8-3.1-1.4-4.4-2.4c-0.9-0.6-1.4-1.6-2-2.5c-1-1.4-2-2.9-3.1-4.4
	c-0.4-0.6-0.8-1.2-1.2-1.8C21,5.6,21,5.5,21.1,5.5z M14,5.3l0.1,0.1c-1.2,1.8-2.5,3.5-3.7,5.3c-0.6,0.9-1.3,1.9-1.9,2.8
	c-0.8,1.2-2.1,1.8-3.5,2.3c-0.6,0.3-1.3,0.5-2,0.6C6.7,12.7,10.4,9,14,5.3z M16.8,30.6c0,0.5,0,1.1,0,1.9c-0.4-0.2-0.7-0.3-0.9-0.5
	c-1.3-1.2-2.5-2.5-3.7-3.7c-1-1-1.9-2-2.9-3c-1.2-1.2-2.5-2.4-3.7-3.6c-0.9-1-1.9-1.9-2.8-2.9c-0.4-0.5-0.1-1.1,0.6-1.4
	c0.9-0.4,1.9-0.8,2.9-1.1C7.2,16,8.2,16,9,16.3c1.5,0.6,3,1.3,4.5,1.9c0.7,0.3,1.4,0.5,2.1,0.8c0.8,0.4,1.1,1.1,1.2,1.9
	C16.8,24.1,16.8,27.4,16.8,30.6z M16.9,18.1c-0.5-0.2-1.4-0.4-2.3-0.8c-1.6-0.6-3.2-1.3-4.8-2c-0.8-0.3-1-0.8-0.5-1.5
	c1.4-2.1,2.8-4.1,4.3-6.2c1-1.5,2.1-3,3.1-4.5c0.5-0.7,0.8-0.7,1.3,0c1.3,1.8,2.5,3.6,3.8,5.3c1.2,1.7,2.4,3.4,3.6,5.1
	c0.6,0.8,0.2,1.4-1,1.8C23.3,16,22.2,16.5,21,17C19.9,17.4,18.8,18.1,16.9,18.1z M31.9,19c-1.2,1.2-2.5,2.4-3.7,3.7
	c-2.1,2.1-4.3,4.3-6.4,6.4c-1,1-1.9,2-2.9,2.9c-0.1,0.1-0.4,0.2-0.6,0.4c0-1.3,0-2.5,0-3.7c0-2.7,0-5.4,0-8c0-0.9,0.7-1.7,1.5-2
	c1.4-0.5,2.7-1.1,4.1-1.7c0.9-0.4,1.9-0.8,2.8-0.9c0.7-0.1,1.5,0.1,2.3,0.4c0.9,0.3,1.8,0.8,2.7,1.2C32.4,18,32.5,18.4,31.9,19z"/>
</svg>
