<?xml version="1.0" encoding="utf-8"?>
<!-- Generator: Adobe Illustrator 24.1.3, SVG Export Plug-In . SVG Version: 6.00 Build 0)  -->
<svg version="1.1" id="Layer_1" xmlns="http://www.w3.org/2000/svg" xmlns:xlink="http://www.w3.org/1999/xlink" x="0px" y="0px"
	 viewBox="0 0 35 35" style="enable-background:new 0 0 35 35;" xml:space="preserve">
<path d="M34.95,21.43c-0.05-0.25-0.11-0.51-0.12-0.77c-0.09-2.07-0.17-4.15-0.26-6.54c0.18-1.3-0.29-2.71-1.27-4.03
	c-1.17-1.56-2.24-3.19-3.34-4.79c-0.42-0.62-0.81-1.23-1.6-1.52c-2.98-1.09-5.97-2.18-8.92-3.34c-1.24-0.48-2.37-0.63-3.66-0.12
	c-3.06,1.22-6.17,2.31-9.25,3.5C6.11,3.98,5.69,4.3,5.44,4.66C4,6.68,2.61,8.72,1.23,10.77c-0.28,0.41-0.62,0.87-0.67,1.33
	c-0.16,1.4-0.22,2.81-0.28,4.22c-0.07,1.47-0.09,2.95-0.14,4.42c-0.01,0.12-0.04,0.24-0.06,0.36c-0.15,0.81-0.12,1.59,0.44,2.28
	c1.86,2.3,3.69,4.61,5.57,6.89c0.34,0.42,0.81,0.83,1.32,1.03c2.77,1.12,5.56,2.19,8.36,3.22c0.78,0.29,1.55,0.72,2.51,0.34
	c2.97-1.16,5.97-2.25,8.96-3.39c0.4-0.16,0.84-0.32,1.13-0.61c0.55-0.55,0.99-1.19,1.48-1.79c1.3-1.6,2.62-3.18,3.9-4.79
	C34.42,23.44,35.2,22.63,34.95,21.43z M17.89,2.78c0.03-0.65,0.55-0.96,1.17-0.73c2.44,0.9,4.88,1.78,7.3,2.71
	c1.17,0.45,2.05,1.24,2.73,2.28c0.78,1.23,1.62,2.43,2.47,3.61C32.23,11.59,32.11,12,31,12.4c-1.19,0.43-2.45,0.72-3.68,1.06
	c-0.78,0.22-1.52,0.04-2.14-0.38c-1.95-1.33-3.86-2.72-5.8-4.05c-0.87-0.6-1.4-1.31-1.38-2.38c0.01-0.74-0.11-1.49-0.17-2.23
	c0.02,0,0.04,0,0.06,0C17.89,3.87,17.87,3.32,17.89,2.78z M18.86,9.89c1.02,0.76,2.1,1.44,3.16,2.15c0.95,0.64,1.91,1.28,2.86,1.93
	c0.35,0.24,0.57,1.26,0.39,1.81c-0.67,1.98-1.35,3.97-2.02,5.95c-0.09,0.29-0.15,0.58-0.26,0.86c-0.42,1.03-0.86,1.31-2.01,1.31
	c-2.17,0-4.33-0.05-6.49,0.01c-2,0.05-2.39-0.74-2.83-2.09c-0.6-1.81-1.23-3.62-1.83-5.44c-0.12-0.34-0.18-0.69-0.27-1.04
	c-0.03-0.88,0.56-1.36,1.19-1.8c1.8-1.27,3.61-2.51,5.42-3.76C17.16,9.1,17.92,9.19,18.86,9.89z M3.4,10.67
	C4.1,9.71,4.74,8.7,5.41,7.71C6.1,6.69,6.77,5.65,7.95,5.09c0.67-0.33,1.38-0.61,2.08-0.87c1.01-0.38,2.03-0.7,3.03-1.08
	c0.93-0.35,1.83-0.76,2.76-1.1c0.74-0.27,1.13,0.01,1.13,0.76c0,0.67,0,1.34,0,2.01c0,0.5-0.03,1.01,0.02,1.51
	c0.09,1.3-0.57,2.2-1.6,2.91c-1.24,0.86-2.49,1.71-3.74,2.56c-0.62,0.42-1.22,0.87-1.87,1.26c-0.95,0.56-1.93,0.59-2.98,0.19
	C5.92,12.91,5,12.72,4.12,12.43C3.11,12.1,2.62,11.73,3.4,10.67z M7.83,28.57c-0.28,0.29-0.49,0.2-0.72-0.07
	c-0.76-0.9-1.55-1.78-2.28-2.69c-0.9-1.11-1.78-2.23-2.59-3.4C1.98,22.03,1.86,21.47,1.87,21c0.02-1.28,0.17-2.56,0.22-3.85
	c0.04-0.97,0.01-1.95,0.01-2.92c0-0.88,0.48-1.27,1.34-1c1.38,0.43,2.73,0.94,4.08,1.44c0.78,0.29,1.03,1,1.27,1.67
	c0.43,1.2,0.8,2.43,1.2,3.64c0.39,1.18,0.79,2.34,1.19,3.51c0.02,0.06,0.03,0.12,0.08,0.33c-0.25,0.48-0.48,1.11-0.86,1.64
	c-0.65,0.92-1.39,1.78-2.1,2.66C8.17,28.29,7.98,28.41,7.83,28.57z M24.96,30.48c-1.4,0.51-2.75,1.15-4.17,1.59
	c-1.07,0.33-2.04,1.08-3.27,0.82c-0.02,0.07-0.03,0.13-0.05,0.2c-0.85-0.26-1.72-0.48-2.56-0.77c-1.02-0.35-2.03-0.74-3.04-1.12
	c-0.88-0.33-1.77-0.66-2.63-1.03c-0.43-0.18-0.55-0.54-0.29-0.94c0.3-0.47,0.61-0.94,0.96-1.38c0.59-0.74,1.19-1.48,1.83-2.19
	c0.65-0.72,1.5-0.86,2.47-0.77c0.82,0.08,1.65,0.02,2.48,0.02c1.53,0,3.06,0.05,4.58-0.02c1.03-0.05,1.71,0.42,2.28,1.1
	c0.79,0.94,1.53,1.93,2.29,2.9C26.37,29.57,26.04,30.09,24.96,30.48z M32.17,23.35c-1.19,1.53-2.43,3.02-3.63,4.54
	c-0.76,0.96-1.27,0.98-2.02,0c-0.83-1.08-1.71-2.13-2.45-3.26c-0.41-0.63-0.34-1.39-0.06-2.12c0.38-0.96,0.66-1.96,1-2.94
	c0.47-1.38,0.84-2.82,1.5-4.11c0.29-0.57,1.14-0.95,1.82-1.24c0.94-0.41,1.97-0.63,2.95-0.97c0.88-0.3,1.51,0.07,1.57,0.98
	c0.04,0.45,0.01,0.89,0.01,1.34c-0.01,0-0.01,0-0.02,0c0.1,1.72,0.17,3.43,0.28,5.14C33.19,21.73,32.77,22.58,32.17,23.35z"/>
</svg>
