<?xml version="1.0" encoding="utf-8"?>
<!-- Generator: Adobe Illustrator 24.1.3, SVG Export Plug-In . SVG Version: 6.00 Build 0)  -->
<svg version="1.1" id="Layer_1" xmlns="http://www.w3.org/2000/svg" xmlns:xlink="http://www.w3.org/1999/xlink" x="0px" y="0px"
	 viewBox="0 0 35 35" style="enable-background:new 0 0 35 35;" xml:space="preserve">
<path d="M33.75,9.86c-3.07-1.88-6.08-3.83-9.12-5.75c-1.88-1.18-3.79-2.33-5.64-3.54c-1.07-0.7-2-0.78-3.07-0.1
	c-1.69,1.06-3.36,2.14-5.05,3.2C7.58,5.71,4.28,7.75,1,9.8c-0.63,0.39-1.04,0.85-1,1.59c0.1,1.94,0.14,3.87,0.16,5.81
	c0.02,2.37,0.01,4.73,0.01,7.1c0.05,0,0.1,0,0.15,0c0,0.37,0.01,0.74,0,1.11c-0.03,0.73,0.31,1.29,1.06,1.67
	c4.89,2.52,9.8,5.02,14.67,7.58c1.08,0.57,1.96,0.36,2.9-0.14c1.41-0.75,2.84-1.48,4.26-2.22c3.52-1.83,7.05-3.65,10.54-5.52
	c0.4-0.22,0.77-0.73,0.8-1.12c0.14-1.61,0.15-3.22,0.18-4.83c0.06-2.8,0.1-5.59,0.15-8.39c0-0.06-0.01-0.13,0.01-0.18
	C35.22,11.22,34.79,10.5,33.75,9.86z M31.98,12.53c-0.7,1.39-1.46,2.76-2.19,4.15c-0.46,0.87-0.89,1.74-1.36,2.61
	c-0.12,0.22-0.36,0.4-0.67,0.72c-3.19-3.76-6.13-7.52-9.13-11.26c0.06-0.05,0.12-0.11,0.18-0.16c0.61,0.1,1.21,0.19,1.81,0.31
	c1.52,0.3,3.05,0.61,4.57,0.92c0.98,0.2,1.95,0.42,2.92,0.63c0.93,0.2,1.86,0.45,2.8,0.58C32.08,11.2,32.44,11.61,31.98,12.53z
	 M17.86,2.79c0-0.2,0.03-0.44,0.17-0.57c0.13-0.12,0.52-0.2,0.64-0.13c2.62,1.62,5.21,3.26,7.81,4.9c1.42,0.89,2.83,1.78,4.25,2.67
	c0.11,0.07,0.19,0.17,0.29,0.26c-0.03,0.04-0.05,0.08-0.08,0.13c-0.56-0.1-1.12-0.18-1.67-0.29c-1.81-0.39-3.61-0.81-5.43-1.18
	c-1.4-0.29-2.81-0.54-4.23-0.77c-0.98-0.16-1.72-0.87-1.75-1.83C17.83,4.92,17.84,3.85,17.86,2.79z M18.27,9.99
	c1.04,1.32,2.15,2.61,3.21,3.92c0.92,1.15,1.81,2.31,2.72,3.46c0.65,0.81,1.34,1.59,1.97,2.41c0.22,0.28,0.31,0.63,0.49,1.02
	c-6.31,0-12.42,0-18.66,0c0.14-0.3,0.21-0.59,0.39-0.8c1.66-2.04,3.35-4.05,4.99-6.09c0.98-1.21,1.89-2.46,2.83-3.69
	c0.09-0.12,0.19-0.23,0.3-0.34C17.27,9.11,17.62,9.16,18.27,9.99z M6.89,7.85c0.6-0.38,1.2-0.77,1.8-1.15
	c2.25-1.41,4.5-2.83,6.76-4.24c0.09-0.06,0.21-0.08,0.31-0.13c0.23-0.12,0.45-0.25,0.68-0.37c0.11,0.25,0.3,0.5,0.3,0.75
	c0.03,1.08-0.02,2.17,0.03,3.25c0.04,0.9-0.75,1.75-1.99,1.86c-0.93,0.09-1.83,0.35-2.74,0.53c-1.65,0.31-3.3,0.62-4.94,0.93
	C6.02,9.5,4.94,9.73,3.87,9.95C3.84,9.9,3.82,9.85,3.79,9.81C4.83,9.15,5.86,8.5,6.89,7.85z M4.11,10.81
	c1.86-0.34,3.72-0.64,5.57-1.01c1.87-0.37,3.73-0.8,5.6-1.19c0.21-0.04,0.43-0.01,0.91-0.01c-0.55,0.71-1,1.31-1.48,1.89
	c-0.67,0.83-1.36,1.65-2.02,2.47c-0.89,1.1-1.77,2.2-2.65,3.31c-0.73,0.92-1.46,1.84-2.18,2.76c-0.03,0.03-0.05,0.08-0.08,0.1
	c-0.3,0.23-0.61,0.46-0.92,0.69c-0.19-0.29-0.41-0.56-0.57-0.86c-0.33-0.6-0.65-1.22-0.96-1.83c-0.82-1.61-1.64-3.22-2.46-4.84
	C2.48,11.55,2.91,11.02,4.11,10.81z M2.3,24.5c-0.09-3.72-0.18-7.43-0.26-11.15c0.06,0.01,0.12,0.03,0.18,0.04
	c0.89,1.71,1.79,3.41,2.68,5.12c0.25,0.48,0.55,0.95,0.7,1.45c0.24,0.79,0.18,1.57-0.54,2.23c-0.85,0.78-1.67,1.59-2.51,2.38
	C2.47,24.55,2.39,24.53,2.3,24.5z M14.99,32.36c-0.13-0.03-0.28-0.02-0.39-0.08c-1.87-0.96-3.73-1.92-5.59-2.89
	c-1.73-0.9-3.47-1.8-5.18-2.73c-0.84-0.46-0.89-1.07-0.16-1.78c0.66-0.64,1.39-1.23,2.11-1.83c0.19-0.16,0.46-0.26,0.84-0.46
	c0.44,0.41,0.89,0.76,1.26,1.17c0.99,1.1,1.96,2.2,2.9,3.32c1.15,1.37,2.26,2.76,3.4,4.13c0.22,0.27,0.52,0.49,0.75,0.76
	C15.02,32.07,14.98,32.23,14.99,32.36z M18,32.41c-0.33,0.39-1.02,0.31-1.58-0.32c-1.37-1.54-2.69-3.12-4.02-4.69
	c-1.4-1.65-2.78-3.3-4.16-4.96c-0.08-0.09-0.11-0.3-0.04-0.36c0.13-0.11,0.34-0.2,0.52-0.2c2.37-0.01,4.74-0.01,7.1-0.01
	c0.49,0,0.99,0,1.48,0c2.81,0,5.62,0,8.44,0c0.86,0,0.99,0.13,0.53,0.73c-0.72,0.95-1.53,1.86-2.31,2.78
	c-1.28,1.52-2.57,3.03-3.85,4.54C19.4,30.74,18.7,31.57,18,32.41z M31.27,26.47c-1.83,0.93-3.69,1.81-5.51,2.76
	c-1.6,0.83-3.16,1.73-4.74,2.59c-0.36,0.2-0.75,0.36-1.12,0.54c-0.05-0.02-0.11-0.04-0.16-0.06c0.25-0.38,0.46-0.79,0.76-1.15
	c1.73-2.03,3.49-4.04,5.23-6.06c0.54-0.63,1.06-1.26,1.6-1.89c0.57-0.66,1.13-0.72,1.8-0.13c0.81,0.69,1.57,1.43,2.32,2.17
	C31.9,25.67,31.81,26.19,31.27,26.47z M32.6,24.43c-0.33-0.19-0.56-0.28-0.72-0.41c-0.8-0.68-1.63-1.33-2.37-2.06
	c-0.68-0.67-0.59-1.51-0.21-2.24c0.96-1.86,2.01-3.69,3.02-5.54c0.16-0.29,0.24-0.6,0.36-0.9c0.09,0.02,0.18,0.03,0.27,0.05
	C32.83,16.97,32.72,20.63,32.6,24.43z"/>
</svg>
