<?xml version="1.0" encoding="utf-8"?>
<!-- Generator: Adobe Illustrator 24.1.3, SVG Export Plug-In . SVG Version: 6.00 Build 0)  -->
<svg version="1.1" id="Layer_1" xmlns="http://www.w3.org/2000/svg" xmlns:xlink="http://www.w3.org/1999/xlink" x="0px" y="0px"
	 viewBox="0 0 35 35" style="enable-background:new 0 0 35 35;" xml:space="preserve">
<style type="text/css">
	.st0{fill:#010101;}
</style>
<path class="st0" d="M34.18,17.66c-0.96-0.91-1.87-1.91-2.78-2.89c-2.04-2.19-4.07-4.39-6.1-6.6c-2.33-2.54-4.66-5.09-6.99-7.63
	c-0.78-0.85-2.27-0.66-2.79,0.38C15.01,1.94,14.51,2.96,14,3.98c-2.29,4.57-4.59,9.14-6.87,13.73C4.74,22.49,2.38,27.29,0,32.08
	c0,0.48,0,0.96-0.02,1.46c0.44,1.12,1.19,1.5,2.24,1.48C5.39,34.97,8.55,35,11.71,35c6.83,0,13.66-0.02,20.49,0.01
	c0.94,0,1.75-0.67,1.9-1.66c0.18-1.21,0.23-2.46,0.3-3.69c0.11-1.84,0.18-3.69,0.29-5.53c0.06-0.97,0.22-1.93,0.25-2.9
	C34.98,19.97,35.22,18.65,34.18,17.66z M30.64,32.37c-4.54,0-9.07,0-13.61,0c-4.46,0-8.93,0-13.4,0.01c-0.92,0-1.08-0.31-0.61-1.26
	c1.34-2.72,2.68-5.44,4.03-8.15c1.68-3.37,3.36-6.73,5.05-10.08c1.49-2.96,3-5.92,4.5-8.87c0.23-0.47,0.69-0.45,0.93,0.03
	c1.36,2.73,2.7,5.47,4.07,8.19c1.15,2.3,2.35,4.58,3.51,6.87c0.47,0.92,0.89,1.88,1.36,2.81c1.24,2.46,2.49,4.92,3.73,7.38
	c0.33,0.67,0.66,1.35,0.98,2.03C31.49,31.99,31.29,32.37,30.64,32.37z M32.96,22.7c-0.07,0.81-0.17,1.61-0.24,2.42
	c-0.1,1.2-0.2,2.4-0.26,3.61c-0.04,0.72-0.01,1.45-0.14,2.25c-0.3-0.51-0.62-1.01-0.89-1.54c-1.03-2.05-2.05-4.11-3.07-6.18
	c-0.8-1.61-1.57-3.24-2.37-4.85c-1.27-2.56-2.55-5.11-3.83-7.66c-0.37-0.74-0.75-1.47-1.11-2.22c-0.59-1.23-1.17-2.45-1.75-3.68
	c0.02-0.03,0.05-0.05,0.07-0.08c0.58,0.59,1.18,1.16,1.74,1.77c2.49,2.69,4.97,5.39,7.45,8.09c1.06,1.15,2.11,2.3,3.19,3.42
	C32.98,19.32,33.12,20.96,32.96,22.7z"/>
</svg>
