<?xml version="1.0" encoding="utf-8"?>
<!-- Generator: Adobe Illustrator 24.1.3, SVG Export Plug-In . SVG Version: 6.00 Build 0)  -->
<svg version="1.1" id="Layer_1" xmlns="http://www.w3.org/2000/svg" xmlns:xlink="http://www.w3.org/1999/xlink" x="0px" y="0px"
	 viewBox="0 0 35 35" style="enable-background:new 0 0 35 35;" xml:space="preserve">
<style type="text/css">
	.st0{opacity:0.6;fill:#010101;enable-background:new    ;}
</style>
<path class="st0" d="M34.2,17.7c-1-0.9-1.9-1.9-2.8-2.9c-2-2.2-4.1-4.4-6.1-6.6c-2.3-2.5-4.7-5.1-7-7.6C17.5-0.3,16-0.1,15.5,1
	c-0.5,1-1,2-1.5,3.1c-2.3,4.6-4.6,9.1-6.9,13.7C4.7,22.5,2.4,27.3,0,32.1c0,0.5,0,1,0,1.5C0.4,34.7,1.2,35,2.2,35c3.2,0,6.3,0,9.5,0
	c6.8,0,13.7,0,20.5,0c0.9,0,1.8-0.7,1.9-1.7c0.2-1.2,0.2-2.5,0.3-3.7c0.1-1.8,0.2-3.7,0.3-5.5c0.1-1,0.2-1.9,0.3-2.9
	C35,20,35.2,18.6,34.2,17.7z M30.6,32.4c-4.5,0-9.1,0-13.6,0s-8.9,0-13.4,0c-0.9,0-1.1-0.3-0.6-1.3c1.3-2.7,2.7-5.4,4-8.1
	c1.7-3.4,3.4-6.7,5.1-10.1c1.5-3,3-5.9,4.5-8.9c0.2-0.5,0.7-0.5,0.9,0c1.4,2.7,2.7,5.5,4.1,8.2c1.1,2.3,2.4,4.6,3.5,6.9
	c0.5,0.9,0.9,1.9,1.4,2.8c1.2,2.5,2.5,4.9,3.7,7.4c0.3,0.7,0.7,1.4,1,2C31.5,32,31.3,32.4,30.6,32.4z M33,22.7
	c-0.1,0.8-0.2,1.6-0.2,2.4c-0.1,1.2-0.2,2.4-0.3,3.6c0,0.7,0,1.5-0.1,2.3c-0.3-0.5-0.6-1-0.9-1.5c-1-2-2-4.1-3.1-6.2
	c-0.8-1.6-1.6-3.2-2.4-4.9c-1.3-2.6-2.5-5.1-3.8-7.7c-0.4-0.7-0.8-1.5-1.1-2.2c-0.6-1.2-1.2-2.4-1.8-3.7c0,0,0-0.1,0.1-0.1
	c0.6,0.6,1.2,1.2,1.7,1.8c2.5,2.7,5,5.4,7.5,8.1c1.1,1.1,2.1,2.3,3.2,3.4C33,19.3,33.1,21,33,22.7z"/>
</svg>
