<?xml version="1.0" encoding="utf-8"?>
<!-- Generator: Adobe Illustrator 24.1.3, SVG Export Plug-In . SVG Version: 6.00 Build 0)  -->
<svg version="1.1" id="Layer_1" xmlns="http://www.w3.org/2000/svg" xmlns:xlink="http://www.w3.org/1999/xlink" x="0px" y="0px"
	 viewBox="0 0 35 35" style="enable-background:new 0 0 35 35;" xml:space="preserve">
<path d="M32.96,0c-6.37,0.05-12.73,0.02-19.1,0.03c-0.39,0-0.81,0.07-1.18,0.24C8.91,2,5.15,3.76,1.39,5.53
	C0.43,5.99,0.01,6.8,0.01,8.04c0,4.01,0,8.01,0,12.02c0,4.05,0.01,8.11-0.01,12.17c-0.01,1.8,0.97,2.78,2.29,2.77
	c6.43-0.04,12.87,0,19.3-0.04c0.82-0.01,1.69-0.25,2.45-0.64c3.2-1.67,6.36-3.44,9.55-5.14c0.99-0.53,1.41-1.4,1.41-2.67
	c-0.01-5.13,0-10.26,0-15.39c0-2.88,0-5.76,0-8.64C35,0.95,34.08-0.01,32.96,0z M4.29,6.65c1.59-0.8,3.17-1.61,4.77-2.38
	c1.24-0.59,2.48-1.17,3.75-1.67c0.58-0.23,1.21-0.36,1.82-0.36c5.39-0.02,10.78-0.01,16.17-0.01c0.1,0,0.21,0.02,0.36,0.15
	c-0.66,0.36-1.32,0.73-1.99,1.07c-1.21,0.62-2.44,1.19-3.64,1.84c-1.65,0.89-3.3,1.57-5.18,1.53C15.23,6.71,10.11,6.78,4.99,6.78
	c-0.23,0-0.47,0-0.71,0C4.28,6.73,4.29,6.69,4.29,6.65z M22.17,30.76c0,0.86-0.41,1.41-1.13,1.48c-0.5,0.04-1.01,0.05-1.51,0.05
	c-5.16,0-10.33,0-15.49,0c-1.41,0-1.8-0.47-1.8-2.16c0-6.72,0-13.44,0-20.16c0-1.34,0.39-1.82,1.47-1.82c2.83,0,5.66,0,8.49,0
	c2.9,0,5.8,0,8.7,0.01c0.82,0,1.27,0.54,1.27,1.54C22.17,16.72,22.17,23.74,22.17,30.76z M31.21,27.5
	c-0.56,0.33-1.11,0.67-1.68,0.96c-0.91,0.47-1.83,0.89-2.74,1.36c-0.88,0.46-1.73,0.96-2.6,1.41c-0.64,0.33-0.89,0.1-0.89-0.8
	c0-3.51,0-7.02,0-10.53c0-3.2,0.02-6.41-0.01-9.63c-0.01-2.66,0.41-2.58,1.93-3.44c1.55-0.88,3.11-1.73,4.67-2.57
	c0.67-0.36,1.36-0.69,2.04-1.01c0.64-0.29,1.06,0.01,1.1,0.82c0.04,0.68,0.01,1.38,0.01,2.07c0,6.12-0.02,12.23,0.02,18.35
	C33.07,26.21,32.39,26.8,31.21,27.5z"/>
</svg>
