<?xml version="1.0" encoding="utf-8"?>
<!-- Generator: Adobe Illustrator 24.1.3, SVG Export Plug-In . SVG Version: 6.00 Build 0)  -->
<svg version="1.1" id="Layer_1" xmlns="http://www.w3.org/2000/svg" xmlns:xlink="http://www.w3.org/1999/xlink" x="0px" y="0px"
	 viewBox="0 0 35 35" style="enable-background:new 0 0 35 35;" xml:space="preserve">
<style type="text/css">
	.st0{opacity:0.6;enable-background:new    ;}
</style>
<path class="st0" d="M33,0c-6.4,0.1-12.7,0-19.1,0c-0.4,0-0.8,0.1-1.2,0.2C8.9,2,5.2,3.8,1.4,5.5C0.4,6,0,6.8,0,8c0,4,0,8,0,12
	s0,8.1,0,12.2C0,34,1,35,2.3,35c6.4,0,12.9,0,19.3,0c0.8,0,1.7-0.3,2.5-0.6c3.2-1.7,6.4-3.4,9.5-5.1c1-0.5,1.4-1.4,1.4-2.7
	c0-5.1,0-10.3,0-15.4c0-2.9,0-5.8,0-8.6C35,0.9,34.1,0,33,0z M4.3,6.7C5.9,5.8,7.5,5,9.1,4.3c1.2-0.6,2.5-1.2,3.8-1.7
	c0.6-0.2,1.2-0.4,1.8-0.4c5.4,0,10.8,0,16.2,0c0.1,0,0.2,0,0.4,0.2c-0.7,0.4-1.3,0.7-2,1.1c-1.2,0.6-2.4,1.2-3.6,1.8
	c-1.6,0.9-3.3,1.6-5.2,1.5c-5.1-0.1-10.2,0-15.4,0c-0.2,0-0.5,0-0.7,0C4.3,6.7,4.3,6.7,4.3,6.7z M22.2,30.8c0,0.9-0.4,1.4-1.1,1.5
	c-0.5,0-1,0-1.5,0c-5.2,0-10.3,0-15.5,0c-1.4,0-1.8-0.5-1.8-2.2c0-6.7,0-13.4,0-20.2c0-1.3,0.4-1.8,1.5-1.8c2.8,0,5.7,0,8.5,0
	c2.9,0,5.8,0,8.7,0c0.8,0,1.3,0.5,1.3,1.5C22.2,16.7,22.2,23.7,22.2,30.8z M31.2,27.5c-0.6,0.3-1.1,0.7-1.7,1
	c-0.9,0.5-1.8,0.9-2.7,1.4c-0.9,0.5-1.7,1-2.6,1.4c-0.6,0.3-0.9,0.1-0.9-0.8c0-3.5,0-7,0-10.5c0-3.2,0-6.4,0-9.6
	c0-2.7,0.4-2.6,1.9-3.4c1.5-0.9,3.1-1.7,4.7-2.6c0.7-0.4,1.4-0.7,2-1C32.6,3,33,3.3,33,4.1c0,0.7,0,1.4,0,2.1c0,6.1,0,12.2,0,18.4
	C33.1,26.2,32.4,26.8,31.2,27.5z"/>
</svg>
