<?xml version="1.0" encoding="utf-8"?>
<!-- Generator: Adobe Illustrator 24.1.3, SVG Export Plug-In . SVG Version: 6.00 Build 0)  -->
<svg version="1.1" id="Layer_1" xmlns="http://www.w3.org/2000/svg" xmlns:xlink="http://www.w3.org/1999/xlink" x="0px" y="0px"
	 viewBox="0 0 35 35" style="enable-background:new 0 0 35 35;" xml:space="preserve">
<path d="M34.22,14.33c-0.31-0.25-0.61-0.51-0.92-0.76c-1.61-1.33-3.23-2.66-4.85-3.98c-1.88-1.53-3.77-3.03-5.65-4.55
	c-1.66-1.35-3.28-2.73-4.95-4.06C17.37,0.59,16.78,0.32,16.24,0c-0.03,0.05-0.06,0.1-0.08,0.15c-0.64-0.07-1.11,0.23-1.5,0.67
	c-1.27,1.44-2.52,2.89-3.79,4.33c-1.7,1.92-3.41,3.83-5.12,5.75c-1.76,1.97-3.53,3.95-5.29,5.92c-0.56,0.63-0.61,1.72-0.1,2.28
	c0.73,0.8,1.46,1.61,2.2,2.4c1.57,1.66,3.14,3.32,4.71,4.98c1.8,1.9,3.62,3.78,5.42,5.68c0.64,0.68,1.22,1.42,1.89,2.07
	c0.75,0.74,1.79,1.2,2.81,0.16c1.73-1.77,3.46-3.55,5.19-5.32c2.92-2.99,5.86-5.98,8.79-8.97c1.02-1.04,2.04-2.07,3.05-3.11
	C35.26,16.12,35.18,15.12,34.22,14.33z M2.54,17.5c0.1-0.22,0.14-0.48,0.29-0.65c1.84-2.08,3.71-4.15,5.56-6.23
	c1.96-2.2,3.92-4.41,5.88-6.61c0.2-0.22,0.4-0.43,0.56-0.67c0.42-0.62,1.26-0.54,1.71,0.19c0.97,1.58,1.93,3.15,2.92,4.71
	c1.04,1.62,2.11,3.21,3.16,4.82c0.81,1.24,1.61,2.48,2.39,3.74c0.12,0.21,0.12,0.49,0.18,0.74c-0.24,0.04-0.48,0.13-0.72,0.13
	c-3.54,0.01-7.08,0.01-10.62,0.01c-3.56,0-7.12,0-10.67-0.02C2.97,17.66,2.75,17.56,2.54,17.5z M16.91,31.32
	c-0.2,0.3-0.4,0.61-0.64,0.88c-0.45,0.5-0.82,0.53-1.3,0.02c-1.79-1.89-3.54-3.8-5.33-5.69c-0.91-0.96-1.87-1.88-2.78-2.84
	c-1.22-1.3-2.42-2.63-3.63-3.94c-0.26-0.28-0.79-0.41-0.55-1c7.48,0,14.92,0,22.37,0c0.23,0.79-0.41,1.22-0.73,1.74
	c-0.77,1.25-1.61,2.45-2.45,3.65c-0.89,1.29-1.82,2.55-2.71,3.84C18.4,29.08,17.66,30.21,16.91,31.32z M19.41,29.71
	c-0.05-0.04-0.1-0.07-0.15-0.11c0.15-0.21,0.31-0.42,0.46-0.65c1.09-1.61,2.15-3.23,3.27-4.82c1.21-1.71,2.16-3.61,3.71-5.06
	c0.54-0.5,1.32-0.77,2.02-1.09c0.53-0.24,1.11-0.38,1.67-0.56c0.31-0.1,0.62-0.17,0.93-0.26c0.05,0.07,0.1,0.14,0.15,0.21
	C27.45,21.48,23.43,25.6,19.41,29.71z M31.25,16.06c-1.18,0.43-2.38,0.8-3.57,1.19c-0.6,0.2-1.43-0.13-1.81-0.76
	c-1.15-1.88-2.39-3.7-3.58-5.55c-0.74-1.15-1.43-2.33-2.17-3.48c-0.61-0.97-1.26-1.91-1.89-2.87c-0.16-0.25-0.29-0.53-0.43-0.79
	c0.04-0.04,0.08-0.07,0.12-0.1c0.95,0.79,1.9,1.6,2.85,2.4c0.82,0.68,1.66,1.33,2.5,2c1.14,0.9,2.27,1.8,3.4,2.71
	c1.6,1.29,3.2,2.6,4.79,3.9C32.43,15.5,32.42,15.63,31.25,16.06z"/>
</svg>
