<?xml version="1.0" encoding="utf-8"?>
<!-- Generator: Adobe Illustrator 24.1.3, SVG Export Plug-In . SVG Version: 6.00 Build 0)  -->
<svg version="1.1" id="Layer_1" xmlns="http://www.w3.org/2000/svg" xmlns:xlink="http://www.w3.org/1999/xlink" x="0px" y="0px"
	 viewBox="0 0 35 35" style="enable-background:new 0 0 35 35;" xml:space="preserve">
<style type="text/css">
	.st0{opacity:0.6;enable-background:new    ;}
</style>
<path class="st0" d="M34.2,14.3c-0.3-0.3-0.6-0.5-0.9-0.8c-1.6-1.3-3.2-2.7-4.9-4c-1.9-1.5-3.8-3-5.6-4.6c-1.7-1.3-3.3-2.7-5-4.1
	c-0.5-0.4-1.1-0.7-1.6-1c0,0.1-0.1,0.1-0.1,0.2c-0.6-0.1-1.1,0.2-1.5,0.7c-1.3,1.4-2.5,2.9-3.8,4.3c-1.6,2.1-3.3,4-5,5.9
	c-1.8,2-3.5,3.9-5.3,5.9c-0.6,0.6-0.6,1.7-0.1,2.3c0.7,0.8,1.5,1.6,2.2,2.4c1.6,1.7,3.1,3.3,4.7,5c1.8,1.9,3.6,3.8,5.4,5.7
	c0.6,0.7,1.2,1.4,1.9,2.1c0.8,0.7,1.8,1.2,2.8,0.2c1.7-1.8,3.5-3.5,5.2-5.3c2.9-3,5.9-6,8.8-9c1-1,2-2.1,3-3.1
	C35.3,16.1,35.2,15.1,34.2,14.3z M2.5,17.5c0.1-0.2,0.1-0.5,0.3-0.6c1.8-2.1,3.7-4.1,5.6-6.2c2-2.2,3.9-4.4,5.9-6.6
	c0.2-0.2,0.4-0.4,0.6-0.7c0.4-0.6,1.3-0.5,1.7,0.2c1,1.6,1.9,3.2,2.9,4.7c1,1.6,2.1,3.2,3.2,4.8c0.8,1.2,1.6,2.5,2.4,3.7
	c0.1,0.2,0.1,0.5,0.2,0.7c-0.2,0-0.5,0.1-0.7,0.1c-3.5,0-7.1,0-10.6,0c-3.6,0-7.1,0-10.7,0C3,17.7,2.8,17.6,2.5,17.5z M16.9,31.3
	c-0.2,0.3-0.4,0.6-0.6,0.9c-0.4,0.5-0.8,0.5-1.3,0c-1.8-1.9-3.5-3.8-5.3-5.7c-0.9-1-1.9-1.9-2.8-2.8c-1.2-1.3-2.4-2.6-3.6-3.9
	c-0.3-0.3-0.8-0.4-0.5-1c7.5,0,14.9,0,22.4,0c0.2,0.8-0.4,1.2-0.7,1.7c-0.8,1.3-1.6,2.5-2.5,3.6c-0.9,1.3-1.8,2.5-2.7,3.8
	C18.4,29.1,17.7,30.2,16.9,31.3z M19.4,29.7l-0.1-0.1c0.1-0.2,0.3-0.4,0.5-0.6c1.1-1.6,2.1-3.2,3.3-4.8c1.2-1.7,2.2-3.6,3.7-5.1
	c0.5-0.5,1.3-0.8,2-1.1c0.5-0.2,1.1-0.4,1.7-0.6c0.3-0.1,0.6-0.2,0.9-0.3c0,0.1,0.1,0.1,0.1,0.2C27.5,21.5,23.4,25.6,19.4,29.7z
	 M31.3,16.1c-1.2,0.4-2.4,0.8-3.6,1.2c-0.6,0.2-1.4-0.1-1.8-0.8c-1.1-1.9-2.4-3.7-3.6-5.6c-0.7-1.1-1.4-2.3-2.2-3.5
	c-0.6-1-1.3-1.9-1.9-2.9C18,4.2,17.9,4,17.8,3.7l0.1-0.1c1,0.8,1.9,1.6,2.9,2.4c0.8,0.7,1.7,1.3,2.5,2c1.1,0.9,2.3,1.8,3.4,2.7
	c1.6,1.3,3.2,2.6,4.8,3.9C32.4,15.5,32.4,15.6,31.3,16.1z"/>
</svg>
