<?xml version="1.0" encoding="utf-8"?>
<!-- Generator: Adobe Illustrator 24.1.3, SVG Export Plug-In . SVG Version: 6.00 Build 0)  -->
<svg version="1.1" id="Layer_1" xmlns="http://www.w3.org/2000/svg" xmlns:xlink="http://www.w3.org/1999/xlink" x="0px" y="0px"
	 viewBox="0 0 35 35" style="enable-background:new 0 0 35 35;" xml:space="preserve">
<style type="text/css">
	.st0{fill:#010101;enable-background:new    ;}
</style>
<path class="st0" d="M26,3.5c0.5,0,1,0.5,1,1v26.1c0,0.5-0.5,1-1,1H9c-0.5,0-1-0.5-1-1V4.5c0-0.5,0.5-1,1-1H26 M26,1.5H9
	c-1.7,0-3,1.3-3,3v26.1c0,1.7,1.3,3,3,3H26c1.6,0,3-1.3,3-3V4.5C29,2.8,27.7,1.5,26,1.5L26,1.5z"/>
</svg>
